<svg width="33" height="37" viewBox="0 0 33 37" fill="none" xmlns="http://www.w3.org/2000/svg">
<g filter="url(#filter0_d_4033_391)">
<path fill-rule="evenodd" clip-rule="evenodd" d="M22.1667 4.41895H11.3333C7.59391 4.41895 4.5625 7.45036 4.5625 11.1898V22.0231C4.5625 25.7625 7.59391 28.7939 11.3333 28.7939H22.1667C25.9061 28.7939 28.9375 25.7625 28.9375 22.0231V11.1898C28.9375 7.45036 25.9061 4.41895 22.1667 4.41895ZM26.5677 22.0231C26.5603 24.4506 24.5941 26.4167 22.1667 26.4242H11.3333C8.90579 26.4167 6.93973 24.4506 6.93229 22.0231V11.1898C6.93973 8.76223 8.90579 6.79617 11.3333 6.78874H22.1667C24.5941 6.79617 26.5603 8.76223 26.5677 11.1898V22.0231ZM23.1823 11.5283C23.9302 11.5283 24.5365 10.922 24.5365 10.1742C24.5365 9.42627 23.9302 8.81999 23.1823 8.81999C22.4344 8.81999 21.8281 9.42627 21.8281 10.1742C21.8281 10.922 22.4344 11.5283 23.1823 11.5283ZM16.75 10.5127C13.3845 10.5127 10.6562 13.241 10.6562 16.6064C10.6562 19.972 13.3845 22.7002 16.75 22.7002C20.1155 22.7002 22.8438 19.972 22.8438 16.6064C22.8474 14.9892 22.2065 13.4371 21.0629 12.2935C19.9193 11.15 18.3673 10.5091 16.75 10.5127ZM13.026 16.6064C13.026 18.6632 14.6933 20.3304 16.75 20.3304C18.8067 20.3304 20.474 18.6632 20.474 16.6064C20.474 14.5497 18.8067 12.8825 16.75 12.8825C14.6933 12.8825 13.026 14.5497 13.026 16.6064Z" fill="white"/>
</g>
<defs>
<filter id="filter0_d_4033_391" x="-3.5" y="0.027832" width="40.5" height="40.5" filterUnits="userSpaceOnUse" color-interpolation-filters="sRGB">
<feFlood flood-opacity="0" result="BackgroundImageFix"/>
<feColorMatrix in="SourceAlpha" type="matrix" values="0 0 0 0 0 0 0 0 0 0 0 0 0 0 0 0 0 0 127 0" result="hardAlpha"/>
<feOffset dy="4"/>
<feGaussianBlur stdDeviation="2"/>
<feComposite in2="hardAlpha" operator="out"/>
<feColorMatrix type="matrix" values="0 0 0 0 0 0 0 0 0 0 0 0 0 0 0 0 0 0 0.25 0"/>
<feBlend mode="normal" in2="BackgroundImageFix" result="effect1_dropShadow_4033_391"/>
<feBlend mode="normal" in="SourceGraphic" in2="effect1_dropShadow_4033_391" result="shape"/>
</filter>
</defs>
</svg>
