<svg width="28" height="20" viewBox="0 0 28 20" fill="none" xmlns="http://www.w3.org/2000/svg">
<path d="M27.2404 3.78158C27.0861 3.20931 26.7847 2.68742 26.3661 2.26785C25.9474 1.84828 25.4262 1.54566 24.8543 1.39012C22.7337 0.807829 14.2498 0.79835 14.2498 0.79835C14.2498 0.79835 5.76734 0.788871 3.64536 1.34543C3.0738 1.50813 2.55366 1.81503 2.13487 2.23666C1.71609 2.65829 1.41272 3.18049 1.2539 3.75314C0.694628 5.87377 0.689211 10.2721 0.689211 10.2721C0.689211 10.2721 0.683794 14.6921 1.239 16.7911C1.55046 17.9516 2.46452 18.8684 3.6264 19.1812C5.76869 19.7635 14.2295 19.7729 14.2295 19.7729C14.2295 19.7729 22.7134 19.7824 24.834 19.2272C25.4061 19.0719 25.9278 18.77 26.3475 18.3513C26.7672 17.9326 27.0703 17.4116 27.2268 16.8398C27.7874 14.7205 27.7915 10.3236 27.7915 10.3236C27.7915 10.3236 27.8186 5.9022 27.2404 3.78158ZM11.5361 14.3468L11.5429 6.22179L18.594 10.2911L11.5361 14.3468Z" fill="white"/>
</svg>
