<svg width="33" height="33" viewBox="0 0 33 33" fill="none" xmlns="http://www.w3.org/2000/svg">
<path d="M29.2404 9.78158C29.0861 9.20931 28.7847 8.68742 28.3661 8.26785C27.9474 7.84828 27.4262 7.54566 26.8543 7.39012C24.7337 6.80783 16.2498 6.79835 16.2498 6.79835C16.2498 6.79835 7.76734 6.78887 5.64536 7.34543C5.0738 7.50813 4.55366 7.81503 4.13487 8.23666C3.71609 8.65829 3.41272 9.18049 3.2539 9.75314C2.69463 11.8738 2.68921 16.2721 2.68921 16.2721C2.68921 16.2721 2.68379 20.6921 3.239 22.7911C3.55046 23.9516 4.46452 24.8684 5.6264 25.1812C7.76869 25.7635 16.2295 25.7729 16.2295 25.7729C16.2295 25.7729 24.7134 25.7824 26.834 25.2272C27.4061 25.0719 27.9278 24.77 28.3475 24.3513C28.7672 23.9326 29.0703 23.4116 29.2268 22.8398C29.7874 20.7205 29.7915 16.3236 29.7915 16.3236C29.7915 16.3236 29.8186 11.9022 29.2404 9.78158ZM13.5361 20.3468L13.5429 12.2218L20.594 16.2911L13.5361 20.3468Z" fill="white"/>
</svg>
