<svg width="267" height="36" viewBox="0 0 267 36" fill="none" xmlns="http://www.w3.org/2000/svg">
<path d="M18.6666 20.2777H22L23.3333 14.9443H18.6666V12.2777C18.6666 10.9043 18.6666 9.611 21.3333 9.611H23.3333V5.131C22.8986 5.07367 21.2573 4.94434 19.524 4.94434C15.904 4.94434 13.3333 7.15367 13.3333 11.211V14.9443H9.33331V20.2777H13.3333V31.611H18.6666V20.2777Z" fill="white"/>
<path d="M106.24 11.7816C106.086 11.2093 105.785 10.6874 105.366 10.2678C104.947 9.84828 104.426 9.54566 103.854 9.39012C101.734 8.80783 93.2498 8.79835 93.2498 8.79835C93.2498 8.79835 84.7673 8.78887 82.6454 9.34543C82.0738 9.50813 81.5537 9.81503 81.1349 10.2367C80.7161 10.6583 80.4127 11.1805 80.2539 11.7531C79.6946 13.8738 79.6892 18.2721 79.6892 18.2721C79.6892 18.2721 79.6838 22.6921 80.239 24.7911C80.5505 25.9516 81.4645 26.8684 82.6264 27.1812C84.7687 27.7635 93.2295 27.7729 93.2295 27.7729C93.2295 27.7729 101.713 27.7824 103.834 27.2272C104.406 27.0719 104.928 26.77 105.347 26.3513C105.767 25.9326 106.07 25.4116 106.227 24.8398C106.787 22.7205 106.792 18.3236 106.792 18.3236C106.792 18.3236 106.819 13.9022 106.24 11.7816ZM90.5361 22.3468L90.5429 14.2218L97.594 18.2911L90.5361 22.3468Z" fill="white"/>
<path fill-rule="evenodd" clip-rule="evenodd" d="M176.167 6.41895H165.333C161.594 6.41895 158.562 9.45036 158.562 13.1898V24.0231C158.562 27.7625 161.594 30.7939 165.333 30.7939H176.167C179.906 30.7939 182.938 27.7625 182.938 24.0231V13.1898C182.938 9.45036 179.906 6.41895 176.167 6.41895ZM180.568 24.0231C180.56 26.4506 178.594 28.4167 176.167 28.4242H165.333C162.906 28.4167 160.94 26.4506 160.932 24.0231V13.1898C160.94 10.7622 162.906 8.79617 165.333 8.78874H176.167C178.594 8.79617 180.56 10.7622 180.568 13.1898V24.0231ZM177.182 13.5283C177.93 13.5283 178.536 12.922 178.536 12.1742C178.536 11.4263 177.93 10.82 177.182 10.82C176.434 10.82 175.828 11.4263 175.828 12.1742C175.828 12.922 176.434 13.5283 177.182 13.5283ZM170.75 12.5127C167.385 12.5127 164.656 15.241 164.656 18.6064C164.656 21.972 167.385 24.7002 170.75 24.7002C174.116 24.7002 176.844 21.972 176.844 18.6064C176.847 16.9892 176.206 15.4371 175.063 14.2935C173.919 13.15 172.367 12.5091 170.75 12.5127ZM167.026 18.6064C167.026 20.6632 168.693 22.3304 170.75 22.3304C172.807 22.3304 174.474 20.6632 174.474 18.6064C174.474 16.5497 172.807 14.8825 170.75 14.8825C168.693 14.8825 167.026 16.5497 167.026 18.6064Z" fill="white"/>
<path d="M257.048 6.96484H261.074L252.28 16.8486L262.625 30.2982H254.525L248.18 22.1411L240.921 30.2982H236.893L246.299 19.7264L236.375 6.96484H244.681L250.416 14.4207L257.048 6.96484ZM255.636 27.929H257.866L243.469 9.20963H241.076L255.636 27.929Z" fill="white"/>
</svg>
