<svg width="121" height="123" viewBox="0 0 121 123" fill="none" xmlns="http://www.w3.org/2000/svg">
    <path
        d="M107.552 59.9101C107.588 59.297 107.745 58.7827 108.023 58.3672C108.301 57.9518 108.696 57.6214 109.208 57.376L109.942 58.5131C109.607 58.6711 109.355 58.862 109.188 59.0859C109.03 59.3104 108.943 59.5579 108.927 59.8284C108.903 60.2432 109.01 60.563 109.251 60.7878C109.491 61.0126 109.926 61.1468 110.557 61.1903L116.491 61.5995L116.398 63.1685L110.329 62.75C109.797 62.7133 109.311 62.5893 108.871 62.3778C108.44 62.1671 108.101 61.8585 107.854 61.4521C107.616 61.0463 107.515 60.5323 107.552 59.9101Z"
        fill="#00C0CC" />
    <path
        d="M106.115 67.0735L112.599 68.5651L112.288 70.092L105.804 68.6004L106.115 67.0735ZM113.577 69.5965C113.633 69.3221 113.758 69.119 113.95 68.9873C114.143 68.8556 114.371 68.8201 114.635 68.8808C114.891 68.9396 115.08 69.0713 115.205 69.2759C115.329 69.4805 115.363 69.72 115.307 69.9944C115.251 70.2688 115.127 70.4719 114.934 70.6036C114.742 70.7353 114.518 70.7718 114.262 70.7131C113.998 70.6523 113.804 70.5196 113.68 70.315C113.556 70.1104 113.521 69.8708 113.577 69.5965Z"
        fill="#00C0CC" />
    <path
        d="M104.04 75.1358C104.232 74.6194 104.536 74.1889 104.953 73.8446C105.378 73.5037 105.881 73.2927 106.46 73.2117C107.047 73.1341 107.678 73.2362 108.354 73.518C109.037 73.8033 109.565 74.1849 109.936 74.6626C110.315 75.1438 110.547 75.661 110.63 76.2141C110.722 76.7707 110.671 77.3073 110.479 77.8237C110.284 78.3487 109.974 78.7816 109.549 79.1225C109.132 79.4668 108.63 79.6778 108.042 79.7554C107.463 79.8365 106.832 79.7344 106.148 79.449C105.473 79.1672 104.946 78.7857 104.566 78.3045C104.195 77.8267 103.963 77.3095 103.872 76.7529C103.789 76.1998 103.845 75.6608 104.04 75.1358ZM105.215 75.6264C105.045 76.0836 105.099 76.5218 105.376 76.9408C105.654 77.3599 106.097 77.6964 106.706 77.9504C107.322 78.2079 107.867 78.2837 108.34 78.1778C108.813 78.0719 109.134 77.7903 109.304 77.3331C109.474 76.8759 109.42 76.4378 109.143 76.0188C108.862 75.6082 108.413 75.2741 107.796 75.0167C107.188 74.7626 106.649 74.6844 106.179 74.7818C105.706 74.8877 105.385 75.1692 105.215 75.6264Z"
        fill="#00C0CC" />
    <path
        d="M96.5614 89.7409C97.0181 89.1578 97.5656 88.7439 98.2039 88.4994C98.8422 88.2549 99.5277 88.2135 100.26 88.3752C100.994 88.5499 101.728 88.9585 102.462 89.6009C103.19 90.2374 103.7 90.9239 103.994 91.6604C104.289 92.41 104.384 93.1456 104.277 93.8671C104.177 94.5946 103.898 95.2499 103.442 95.8331C103.096 96.274 102.705 96.5908 102.268 96.7834C101.83 96.9761 101.413 97.0845 101.016 97.1087L100.769 95.7781C101.085 95.7549 101.381 95.6778 101.655 95.5465C101.931 95.4283 102.175 95.2341 102.387 94.9639C102.682 94.587 102.848 94.1629 102.885 93.6917C102.923 93.2336 102.828 92.7616 102.602 92.2756C102.37 91.7968 102.002 91.3373 101.499 90.8971C100.737 90.2309 100.003 89.8817 99.2948 89.8494C98.5936 89.8232 98.0146 90.1016 97.5579 90.6848C97.3128 90.9977 97.1568 91.3286 97.0898 91.6774C97.0296 92.0322 97.0235 92.3984 97.0715 92.776L95.8091 92.7861C95.7192 92.228 95.7341 91.6897 95.8537 91.1712C95.9746 90.6657 96.2105 90.1889 96.5614 89.7409Z"
        fill="#00C0CC" />
    <path
        d="M92.778 94.6964L96.9513 99.8776L95.9936 100.738L95.1735 99.8921L95.1332 99.9283C95.2305 100.423 95.2256 100.87 95.1186 101.269C95.0173 101.675 94.8356 101.996 94.5735 102.232C94.3383 102.443 94.1218 102.577 93.924 102.633L93.2756 101.397C93.3857 101.346 93.4833 101.295 93.5686 101.243C93.6538 101.19 93.7502 101.116 93.8577 101.019C94.0526 100.844 94.1924 100.579 94.2772 100.224C94.3675 99.8764 94.3314 99.4361 94.1686 98.9033L91.6188 95.7376L92.778 94.6964Z"
        fill="#00C0CC" />
    <path
        d="M84.9855 100.953C85.5047 100.625 86.0411 100.446 86.5949 100.416C87.1532 100.394 87.6817 100.529 88.1804 100.822C88.6835 101.123 89.1158 101.592 89.4773 102.228C89.8344 102.856 90.0202 103.475 90.0347 104.085C90.0416 104.7 89.9157 105.255 89.6571 105.749C89.3984 106.244 89.0515 106.629 88.6164 106.904C88.1049 107.228 87.6104 107.38 87.1329 107.362C86.66 107.351 86.2174 107.193 85.8053 106.888C85.3976 106.591 85.0398 106.171 84.7318 105.629C84.5712 105.347 84.4653 105.115 84.4142 104.933L87.9872 102.674C87.636 102.202 87.2312 101.919 86.7728 101.824C86.3144 101.73 85.86 101.825 85.4095 102.11C85.1652 102.265 84.9601 102.442 84.7941 102.643C84.625 102.857 84.4753 103.096 84.345 103.36L83.4164 102.794C83.581 102.444 83.7939 102.107 84.0553 101.781C84.3166 101.456 84.6267 101.18 84.9855 100.953ZM88.5208 103.586L86.0243 105.164C86.2787 105.612 86.5727 105.901 86.9064 106.032C87.2445 106.17 87.6045 106.119 87.9862 105.877C88.3145 105.67 88.537 105.358 88.6538 104.943C88.7674 104.54 88.723 104.088 88.5208 103.586Z"
        fill="#00C0CC" />
    <path
        d="M78.4283 104.711C78.9662 104.5 79.4679 104.496 79.9334 104.701C80.3904 104.909 80.7156 105.286 80.9089 105.831C81.1474 106.503 81.0416 107.137 80.5915 107.731C80.1444 108.334 79.3103 108.953 78.0893 109.589C78.2155 109.917 78.4049 110.168 78.6576 110.34C78.9049 110.524 79.2387 110.533 79.659 110.368C79.9616 110.249 80.2389 110.072 80.4908 109.837C80.7343 109.605 80.9646 109.35 81.1816 109.071L82.06 109.845C81.7938 110.202 81.4751 110.546 81.1038 110.876C80.7241 111.21 80.2904 111.473 79.8029 111.665C79.0295 111.969 78.3707 111.961 77.8263 111.642C77.2766 111.334 76.8462 110.742 76.5351 109.865L75.2169 106.149L76.4148 105.678L76.7602 106.328L76.8107 106.308C77.0035 105.961 77.231 105.643 77.493 105.356C77.7466 105.072 78.0584 104.857 78.4283 104.711ZM78.3694 106.044C78.1172 106.143 77.9114 106.292 77.752 106.491C77.5871 106.701 77.4248 106.959 77.2649 107.264L77.7632 108.669C78.5645 108.228 79.0898 107.832 79.3391 107.482C79.5915 107.14 79.6618 106.811 79.55 106.496C79.4504 106.215 79.2938 106.044 79.0804 105.983C78.867 105.921 78.63 105.942 78.3694 106.044Z"
        fill="#00C0CC" />
    <path
        d="M69.3866 107.668C70.1398 107.518 70.7151 107.63 71.1125 108.003C71.5026 108.386 71.7608 108.928 71.8872 109.631L72.4486 112.751L73.379 112.567L73.5853 113.714L72.5871 113.981L72.7226 115.804L71.4466 116.057L71.1251 114.27L69.4636 114.599L69.2453 113.386L70.9067 113.057L70.3453 109.936C70.2078 109.172 69.8333 108.85 69.2219 108.971C69.1067 108.994 68.9895 109.031 68.8702 109.082C68.7526 109.142 68.6526 109.199 68.5704 109.252L68.1006 108.171C68.2667 108.074 68.4609 107.98 68.6833 107.89C68.8952 107.793 69.1296 107.719 69.3866 107.668Z"
        fill="#00C0CC" />
    <path
        d="M64.6018 108.631L64.9612 115.274L63.4056 115.364L63.0461 108.72L64.6018 108.631ZM64.2396 116.483C64.5192 116.467 64.749 116.535 64.9292 116.687C65.1093 116.84 65.2067 117.051 65.2213 117.322C65.2355 117.584 65.1613 117.801 64.9987 117.973C64.8361 118.145 64.6151 118.239 64.3355 118.255C64.056 118.271 63.8261 118.203 63.646 118.051C63.4658 117.898 63.3687 117.691 63.3545 117.429C63.3399 117.159 63.4139 116.937 63.5764 116.765C63.739 116.593 63.96 116.499 64.2396 116.483Z"
        fill="#00C0CC" />
    <path
        d="M57.5403 108.798L59.2336 115.667L57.6571 115.5L56.9233 111.948C56.8634 111.615 56.8038 111.277 56.7447 110.935C56.6765 110.592 56.6133 110.244 56.555 109.893L56.5011 109.887C56.3708 110.219 56.2453 110.546 56.1248 110.869C55.9953 111.192 55.8707 111.51 55.751 111.824L54.3828 115.154L52.8871 114.996L55.7482 108.609L57.5403 108.798Z"
        fill="#00C0CC" />
    <path
        d="M47.6954 106.878C48.2826 107.058 48.7781 107.352 49.1819 107.759C49.5833 108.175 49.8545 108.673 49.9955 109.255C50.1341 109.845 50.1073 110.493 49.9149 111.199C49.725 111.897 49.423 112.456 49.0089 112.876C48.5862 113.294 48.1135 113.57 47.5908 113.702C47.0682 113.835 46.5607 113.825 46.0684 113.674C45.4898 113.497 45.0418 113.218 44.7244 112.837C44.4047 112.465 44.2084 112.018 44.1356 111.495C44.0604 110.981 44.1048 110.423 44.2686 109.822C44.3541 109.508 44.4422 109.271 44.5328 109.109L48.5745 110.349C48.6597 109.761 48.5767 109.259 48.3254 108.842C48.074 108.425 47.6936 108.138 47.1841 107.982C46.9077 107.897 46.6423 107.858 46.3878 107.865C46.1222 107.878 45.8527 107.923 45.5791 108L45.3303 106.903C45.6872 106.796 46.0691 106.733 46.4761 106.717C46.8831 106.7 47.2895 106.754 47.6954 106.878ZM48.3096 111.373L45.4857 110.507C45.3503 111.003 45.3526 111.424 45.4925 111.769C45.6301 112.123 45.9148 112.366 46.3466 112.499C46.7179 112.613 47.0884 112.575 47.458 112.386C47.8166 112.204 48.1005 111.866 48.3096 111.373Z"
        fill="#00C0CC" />
    <path
        d="M37.0302 102.436L32.3484 109.959L31.0585 109.061L35.0386 102.665L32.0139 100.559L32.7154 99.432L37.0302 102.436Z"
        fill="#00C0CC" />
    <path
        d="M29.0271 96.0086C29.4333 96.4199 29.6452 96.8912 29.6626 97.4223C29.6738 97.947 29.4851 98.4235 29.0967 98.8517C28.6173 99.3803 28.0281 99.5666 27.3292 99.4109C26.6242 99.2618 25.7439 98.7555 24.6884 97.892C24.4581 98.1594 24.3214 98.451 24.2784 98.7669C24.223 99.083 24.354 99.4018 24.6713 99.7231C24.8998 99.9545 25.1676 100.136 25.4748 100.267C25.7755 100.392 26.0913 100.494 26.4222 100.572L26.1211 101.75C25.703 101.66 25.2745 101.515 24.8355 101.314C24.3901 101.107 23.9834 100.817 23.6153 100.444C23.0313 99.8531 22.7634 99.2288 22.8116 98.5716C22.8474 97.9146 23.1778 97.2416 23.8029 96.5525L26.452 93.632L27.3565 94.5479L26.941 95.1669L26.9791 95.2055C27.3585 95.2303 27.7264 95.3012 28.083 95.4183C28.4331 95.529 28.7478 95.7258 29.0271 96.0086ZM27.8555 96.5551C27.6651 96.3623 27.4513 96.2356 27.214 96.175C26.9642 96.1147 26.6747 96.0781 26.3452 96.0654L25.3438 97.1694C26.0575 97.7252 26.6169 98.0414 27.0223 98.1181C27.4215 98.2015 27.7334 98.1194 27.958 97.8719C28.1583 97.6511 28.2404 97.4262 28.2045 97.1973C28.1686 96.9684 28.0523 96.7543 27.8555 96.5551Z"
        fill="#00C0CC" />
    <path
        d="M22.3405 88.0887C22.6933 88.6134 22.7997 89.289 22.6595 90.1153L22.6822 90.149L23.3217 89.8391L24.0097 90.8623L16.3533 96.5972L15.4839 95.3041L17.4576 93.8257L18.3696 93.1933C18.0181 93.1072 17.6877 92.9715 17.3783 92.7862C17.0689 92.6009 16.821 92.3695 16.6345 92.0922C16.1707 91.4025 16.0562 90.6824 16.2908 89.9319C16.5253 89.1813 17.0511 88.5001 17.8681 87.8882C18.4754 87.4333 19.0715 87.1558 19.6565 87.0558C20.2343 86.9612 20.7598 87.0071 21.2331 87.1936C21.6941 87.3781 22.0633 87.6764 22.3405 88.0887ZM21.4917 89.1303C21.2447 88.763 20.8826 88.572 20.4054 88.5575C19.9282 88.543 19.3895 88.7605 18.7895 89.21C18.2545 89.6107 17.9017 90.0158 17.7313 90.4252C17.5609 90.8347 17.6168 91.2493 17.8991 91.6691C18.1612 92.0589 18.6322 92.3147 19.3121 92.4367L21.7955 90.5765C21.8235 90.2624 21.8107 89.9847 21.757 89.7431C21.691 89.4995 21.6026 89.2952 21.4917 89.1303Z"
        fill="#00C0CC" />
    <path
        d="M18.1718 80.75C18.3529 81.1637 18.457 81.615 18.4838 82.1038C18.5026 82.5965 18.4594 83.0491 18.3543 83.4616L17.1592 83.2301C17.2426 82.8582 17.2855 82.5061 17.2878 82.1738C17.29 81.8415 17.2241 81.5222 17.09 81.2161C16.945 80.8851 16.7691 80.6746 16.5622 80.5846C16.3552 80.4946 16.1502 80.499 15.9471 80.5978C15.7766 80.6807 15.6675 80.8141 15.6199 80.9979C15.5605 81.1773 15.5337 81.3861 15.5394 81.6242C15.5371 81.8663 15.5424 82.1146 15.5554 82.3693C15.5739 82.6815 15.5721 83.0036 15.5499 83.3355C15.5161 83.6632 15.4257 83.9631 15.2789 84.2353C15.1239 84.5114 14.8799 84.7305 14.5469 84.8926C14.0189 85.1494 13.5015 85.1603 12.9945 84.9252C12.4875 84.6901 12.0854 84.2333 11.7883 83.5548C11.5998 83.1245 11.5044 82.7042 11.5021 82.2938C11.4997 81.8834 11.5375 81.5086 11.6156 81.1695L12.7566 81.4124C12.6965 81.7026 12.6707 81.9811 12.6792 82.248C12.676 82.5106 12.7269 82.7618 12.832 83.0018C12.9661 83.3079 13.1307 83.5039 13.3259 83.5896C13.513 83.6792 13.6999 83.6786 13.8867 83.5877C14.1223 83.4731 14.2466 83.262 14.2598 82.9545C14.2729 82.647 14.2638 82.3001 14.2326 81.9138C14.2068 81.585 14.2091 81.2527 14.2393 80.9168C14.2614 80.5848 14.3482 80.2766 14.4995 79.9922C14.6472 79.6995 14.9079 79.4623 15.2815 79.2805C15.7933 79.0315 16.3207 79.0208 16.8638 79.2484C17.3987 79.4799 17.8347 79.9805 18.1718 80.75Z"
        fill="#00C0CC" />
    <path
        d="M13.7023 60.9253C13.6999 61.5395 13.5714 62.0629 13.3168 62.4955C13.0622 62.9281 12.686 63.2835 12.1881 63.5616L11.3928 62.4746C11.7187 62.2952 11.9589 62.0883 12.1134 61.8541C12.2588 61.6198 12.332 61.3671 12.3331 61.0961C12.3347 60.6806 12.2094 60.3685 11.9573 60.1597C11.7052 59.951 11.263 59.8454 10.6307 59.843L4.68241 59.82L4.68847 58.2483L10.7722 58.2717C11.3052 58.2738 11.7971 58.366 12.2481 58.5484C12.69 58.7308 13.0457 59.0167 13.3152 59.4062C13.5757 59.7956 13.7047 60.302 13.7023 60.9253Z"
        fill="#FF2E63" />
    <path
        d="M13.7908 54.222L7.2167 53.2014L7.45575 51.6616L14.0299 52.6823L13.7908 54.222ZM6.18579 52.246C6.14283 52.5228 6.02785 52.7334 5.84085 52.8781C5.65385 53.0227 5.42645 53.0743 5.15867 53.0327C4.89981 52.9925 4.70321 52.8752 4.56887 52.6806C4.43453 52.4861 4.38884 52.2504 4.4318 51.9737C4.47476 51.697 4.58974 51.4863 4.77674 51.3417C4.96374 51.197 5.18667 51.1448 5.44553 51.185C5.71331 51.2266 5.91438 51.3446 6.04872 51.5392C6.18306 51.7337 6.22875 51.9693 6.18579 52.246Z"
        fill="#FF2E63" />
    <path
        d="M15.5203 46.4948C15.3502 47.0189 15.0624 47.4668 14.6568 47.8385C14.2427 48.2074 13.7448 48.4542 13.163 48.5788C12.5727 48.7006 11.9295 48.6486 11.2336 48.4227C10.529 48.1941 9.97788 47.8585 9.58016 47.416C9.17385 46.9708 8.9157 46.4786 8.80573 45.9396C8.68717 45.3978 8.71294 44.8648 8.88303 44.3407C9.05591 43.808 9.34942 43.3572 9.76356 42.9883C10.1691 42.6165 10.6671 42.3698 11.2574 42.248C11.8392 42.1234 12.4823 42.1754 13.1869 42.4041C13.8828 42.6299 14.4339 42.9655 14.8402 43.4107C15.238 43.8532 15.4961 44.3454 15.6147 44.8872C15.7246 45.4262 15.6932 45.9621 15.5203 46.4948ZM14.3088 46.1016C14.4594 45.6376 14.3846 45.2097 14.0844 44.8179C13.7842 44.4261 13.3205 44.1284 12.6933 43.9248C12.0575 43.7185 11.5031 43.6858 11.03 43.8266C10.5569 43.9675 10.2451 44.2699 10.0945 44.7339C9.94392 45.1978 10.0187 45.6257 10.3189 46.0176C10.6219 46.4008 11.0913 46.6956 11.7271 46.9019C12.3543 47.1055 12.9031 47.1411 13.3734 47.0089C13.8464 46.868 14.1583 46.5656 14.3088 46.1016Z"
        fill="#FF2E63" />
    <path
        d="M22.5758 32.44C22.1303 33.0318 21.5823 33.4672 20.9316 33.746C20.2808 34.0249 19.5711 34.1119 18.8024 34.0069C18.0318 33.8895 17.2495 33.5474 16.4555 32.9806C15.6688 32.4191 15.1047 31.7945 14.7633 31.107C14.4199 30.4069 14.2859 29.7066 14.3612 29.0059C14.4291 28.3 14.6859 27.6511 15.1313 27.0593C15.4681 26.6118 15.8588 26.2805 16.3034 26.0653C16.7479 25.8501 17.1757 25.7172 17.5867 25.6667L17.9086 26.9283C17.5817 26.9722 17.2788 27.0667 17.0001 27.2117C16.7195 27.3443 16.476 27.5477 16.2696 27.8219C15.9817 28.2044 15.8302 28.6233 15.8153 29.0787C15.7984 29.5215 15.9196 29.9686 16.1789 30.42C16.4436 30.8641 16.848 31.2804 17.3921 31.6688C18.2155 32.2566 18.9956 32.5416 19.7323 32.5238C20.4617 32.5008 21.0491 32.1934 21.4945 31.6016C21.7336 31.2841 21.8793 30.9554 21.9316 30.6155C21.9766 30.2704 21.9649 29.9181 21.8965 29.5586L23.2067 29.4621C23.3276 29.9922 23.3387 30.5105 23.24 31.017C23.1394 31.511 22.918 31.9854 22.5758 32.44Z"
        fill="#FF2E63" />
    <path
        d="M26.1983 27.8247L21.5344 23.0803L22.4759 22.2026L23.3816 22.9693L23.4212 22.9323C23.289 22.463 23.266 22.0338 23.3522 21.6449C23.432 21.2495 23.6008 20.9317 23.8584 20.6914C24.0897 20.4759 24.3064 20.3356 24.5084 20.2707L25.2601 21.4217C25.1489 21.476 25.0506 21.5306 24.9652 21.5855C24.8799 21.6404 24.7844 21.7171 24.6787 21.8156C24.487 21.9943 24.3583 22.2562 24.2926 22.6015C24.2205 22.9403 24.2857 23.3609 24.4884 23.8633L27.338 26.7621L26.1983 27.8247Z"
        fill="#FF2E63" />
    <path
        d="M33.6969 21.7742C33.1856 22.1146 32.6453 22.3116 32.076 22.3651C31.5016 22.4112 30.9461 22.3036 30.4097 22.0424C29.8681 21.7738 29.387 21.34 28.9667 20.7412C28.5515 20.1497 28.3137 19.5595 28.2533 18.9705C28.2004 18.3765 28.289 17.8347 28.5191 17.3452C28.7492 16.8558 29.0786 16.4683 29.5072 16.183C30.011 15.8476 30.5099 15.6782 31.0039 15.6747C31.4928 15.6639 31.9613 15.7968 32.4093 16.0735C32.8521 16.3429 33.2526 16.7326 33.6107 17.2427C33.7975 17.5089 33.924 17.7284 33.9902 17.9013L30.4712 20.244C30.8687 20.6845 31.3075 20.9402 31.7876 21.0112C32.2677 21.0821 32.7296 20.9699 33.1732 20.6746C33.4138 20.5144 33.6123 20.3334 33.7686 20.1318C33.9272 19.9177 34.0639 19.6802 34.1787 19.4193L35.1791 19.925C35.0353 20.2702 34.8407 20.6059 34.5952 20.9321C34.3497 21.2582 34.0503 21.5389 33.6969 21.7742ZM29.8527 19.3865L32.3115 17.7496C32.0157 17.3282 31.6907 17.0618 31.3367 16.9503C30.9774 16.8315 30.6098 16.8972 30.2339 17.1475C29.9105 17.3627 29.7041 17.6738 29.6145 18.0805C29.5273 18.4749 29.6067 18.9102 29.8527 19.3865Z"
        fill="#FF2E63" />
    <path
        d="M40.1443 18.0139C39.6131 18.2418 39.1028 18.2643 38.6135 18.0811C38.1325 17.8944 37.7728 17.5377 37.5345 17.011C37.2403 16.3609 37.2995 15.736 37.7121 15.1363C38.121 14.5284 38.9224 13.8897 40.1163 13.2201C39.9628 12.9027 39.7508 12.6644 39.4806 12.5052C39.2148 12.3342 38.8745 12.3378 38.4594 12.5159C38.1606 12.6441 37.892 12.8282 37.6536 13.0681C37.4235 13.3044 37.2087 13.5637 37.0092 13.8458L36.0561 13.1197C36.2997 12.7597 36.5977 12.4107 36.9503 12.0726C37.3112 11.731 37.7324 11.4569 38.2138 11.2503C38.9775 10.9226 39.6486 10.9049 40.2269 11.1972C40.8099 11.4777 41.2931 12.0418 41.6767 12.8895L43.3023 16.4818L42.1194 16.9894L41.7181 16.3655L41.6683 16.3869C41.4986 16.7349 41.2915 17.0548 41.0468 17.3465C40.8104 17.6347 40.5096 17.8571 40.1443 18.0139ZM40.1023 16.7051C40.3513 16.5983 40.5494 16.4445 40.6965 16.2438C40.8481 16.0313 40.9936 15.7723 41.133 15.4668L40.5185 14.1089C39.7368 14.5721 39.2325 14.9802 39.0056 15.3331C38.775 15.6777 38.7285 16.0023 38.8663 16.3068C38.9892 16.5784 39.1616 16.7403 39.3835 16.7925C39.6054 16.8447 39.845 16.8156 40.1023 16.7051Z"
        fill="#FF2E63" />
    <path
        d="M48.8213 14.8826C48.0761 15.0675 47.4896 14.985 47.062 14.6351C46.6408 14.2743 46.3399 13.7487 46.1593 13.0583L45.3569 9.99089L44.4363 10.2193L44.1414 9.09195L45.1237 8.77844L44.8483 6.97622L46.1108 6.66301L46.5704 8.41955L48.2142 8.01172L48.5263 9.20459L46.8824 9.61242L47.6849 12.6798C47.8815 13.4314 48.2822 13.7321 48.8872 13.582C49.0012 13.5537 49.1161 13.5113 49.232 13.4546C49.3456 13.3892 49.4416 13.3281 49.5202 13.2714L50.0747 14.3204C49.9153 14.4251 49.7274 14.5275 49.5109 14.6278C49.3054 14.7346 49.0755 14.8195 48.8213 14.8826Z"
        fill="#FF2E63" />
    <path
        d="M53.5166 13.6938L52.7287 7.08777L54.277 6.91264L55.0649 13.5187L53.5166 13.6938ZM53.3716 5.84237C53.0933 5.87385 52.8593 5.8185 52.6695 5.67634C52.4797 5.53418 52.3688 5.32855 52.3367 5.05947C52.3056 4.79935 52.3658 4.57892 52.5171 4.39818C52.6683 4.21744 52.8831 4.11133 53.1614 4.07986C53.4396 4.04839 53.6736 4.10373 53.8634 4.24589C54.0532 4.38806 54.1637 4.5892 54.1947 4.84931C54.2268 5.1184 54.1672 5.34331 54.0159 5.52405C53.8646 5.70479 53.6498 5.8109 53.3716 5.84237Z"
        fill="#FF2E63" />
    <path
        d="M60.787 13.083L58.7352 6.34825L60.3194 6.40782L61.2387 9.89998C61.316 10.2283 61.3932 10.5612 61.4703 10.8985C61.5563 11.2362 61.6377 11.5782 61.7144 11.9246L61.7685 11.9267C61.8814 11.5874 61.9896 11.2525 62.0931 10.9219C62.2057 10.5917 62.3135 10.2658 62.4166 9.94427L63.6097 6.53154L65.1126 6.58805L62.5878 13.1507L60.787 13.083Z"
        fill="#FF2E63" />
    <path
        d="M70.8759 14.2187C70.2761 14.0863 69.7643 13.8346 69.3405 13.4636C68.9188 13.0838 68.6252 12.6121 68.4596 12.0483C68.2961 11.4757 68.2972 10.8331 68.463 10.1205C68.6268 9.41661 68.9092 8.84069 69.3102 8.39268C69.72 7.94662 70.186 7.63783 70.7081 7.4663C71.2303 7.29477 71.7427 7.26447 72.2455 7.37542C72.8365 7.50582 73.2998 7.74679 73.6353 8.09832C73.9729 8.44105 74.1889 8.86795 74.2833 9.37901C74.3797 9.88128 74.3573 10.4359 74.216 11.043C74.1424 11.3597 74.063 11.6012 73.9779 11.7675L69.8498 10.8566C69.7873 11.444 69.8912 11.9341 70.1615 12.3267C70.4318 12.7193 70.8272 12.9731 71.3476 13.0879C71.6299 13.1502 71.8993 13.168 72.1559 13.1414C72.4234 13.1079 72.6936 13.0426 72.9665 12.9456L73.2615 14.0097C72.9057 14.1439 72.5228 14.2352 72.1128 14.2835C71.7028 14.3317 71.2905 14.3101 70.8759 14.2187ZM70.076 9.82426L72.9605 10.4607C73.0771 9.95923 73.058 9.54339 72.903 9.21319C72.75 8.87419 72.453 8.65604 72.0119 8.55872C71.6326 8.47503 71.2603 8.54086 70.8949 8.75622C70.5403 8.96473 70.2674 9.32075 70.076 9.82426Z"
        fill="#FF2E63" />
    <path
        d="M81.7597 17.3862L86.2707 9.75882L87.6415 10.5277L83.8066 17.0121L87.021 18.815L86.345 19.958L81.7597 17.3862Z"
        fill="#FF2E63" />
    <path
        d="M90.3631 22.7663C89.9181 22.3973 89.672 21.9586 89.6248 21.4501C89.5845 20.9475 89.7546 20.4786 90.1352 20.0434C90.605 19.5062 91.2076 19.2904 91.943 19.3958C92.6844 19.4945 93.6277 19.9248 94.7727 20.6868C94.9977 20.4158 95.1239 20.1275 95.1513 19.8218C95.1917 19.515 95.038 19.2175 94.6904 18.9291C94.44 18.7215 94.1516 18.5644 93.825 18.4578C93.5053 18.357 93.1713 18.2794 92.8229 18.2251L93.0717 17.0764C93.5114 17.136 93.965 17.2483 94.4326 17.4132C94.9071 17.5839 95.346 17.8364 95.7493 18.1709C96.389 18.7014 96.7018 19.2834 96.6876 19.9168C96.6863 20.5493 96.3795 21.2157 95.767 21.9161L93.1714 24.8842L92.1806 24.0625L92.5788 23.4425L92.5371 23.4079C92.1411 23.408 91.7546 23.3631 91.3774 23.2732C91.0071 23.189 90.669 23.0201 90.3631 22.7663ZM91.5517 22.1684C91.7603 22.3414 91.9897 22.4495 92.2398 22.4927C92.5028 22.5348 92.806 22.5517 93.1494 22.5431L94.1305 21.4212C93.3579 20.9329 92.7587 20.6647 92.3329 20.6166C91.9131 20.5618 91.5932 20.6601 91.3732 20.9117C91.1769 21.1361 91.1038 21.3569 91.1536 21.5743C91.2035 21.7916 91.3362 21.9896 91.5517 22.1684Z"
        fill="#FF2E63" />
    <path
        d="M97.7467 29.6426C97.3445 29.1546 97.1874 28.5096 97.2752 27.7075L97.2493 27.6761L96.608 28.0054L95.8239 27.0539L103.361 21.1631L104.352 22.3656L102.409 23.8842L101.508 24.537C101.878 24.6029 102.23 24.7175 102.563 24.8809C102.897 25.0442 103.17 25.2549 103.383 25.5128C103.911 26.1541 104.08 26.8417 103.889 27.5754C103.698 28.3092 103.2 28.9904 102.396 29.6189C101.798 30.0862 101.2 30.3821 100.6 30.5068C100.008 30.6258 99.4601 30.6071 98.9566 30.4505C98.466 30.2953 98.0626 30.026 97.7467 29.6426ZM98.5541 28.599C98.8356 28.9406 99.2241 29.1068 99.7197 29.0976C100.215 29.0885 100.759 28.853 101.349 28.3913C101.876 27.9797 102.213 27.5727 102.362 27.1704C102.51 26.768 102.423 26.3717 102.101 25.9813C101.803 25.6188 101.297 25.3954 100.583 25.311L98.1386 27.2217C98.1314 27.5253 98.1641 27.7921 98.2365 28.022C98.3218 28.2533 98.4277 28.4456 98.5541 28.599Z"
        fill="#FF2E63" />
    <path
        d="M102.549 36.1882C102.331 35.7927 102.188 35.3575 102.122 34.8824C102.064 34.4032 102.073 33.9605 102.148 33.5544L103.39 33.7302C103.333 34.0959 103.317 34.4406 103.341 34.7644C103.365 35.0883 103.458 35.3965 103.619 35.6891C103.794 36.0055 103.991 36.2032 104.21 36.2823C104.429 36.3614 104.638 36.3486 104.838 36.2439C105.006 36.156 105.107 36.0215 105.142 35.8405C105.188 35.6633 105.199 35.4588 105.175 35.2271C105.158 34.9912 105.133 34.7495 105.099 34.502C105.056 34.1986 105.032 33.8848 105.029 33.5605C105.038 33.24 105.106 32.9441 105.235 32.6728C105.372 32.3974 105.604 32.1738 105.933 32.0021C106.453 31.7299 106.982 31.6978 107.519 31.9057C108.057 32.1137 108.505 32.5419 108.863 33.1905C109.089 33.6018 109.22 34.0072 109.255 34.4069C109.29 34.8066 109.281 35.1732 109.228 35.5068L108.04 35.3177C108.079 35.0325 108.083 34.7601 108.054 34.5005C108.036 34.2446 107.964 34.0019 107.838 33.7726C107.676 33.4799 107.492 33.2959 107.286 33.2206C107.087 33.141 106.896 33.1494 106.712 33.2457C106.479 33.3672 106.369 33.5779 106.38 33.878C106.391 34.1781 106.427 34.5157 106.49 34.8906C106.542 35.2098 106.566 35.5336 106.562 35.8621C106.565 36.1864 106.501 36.4902 106.368 36.7736C106.24 37.0648 105.992 37.3068 105.624 37.4994C105.119 37.7632 104.58 37.7956 104.006 37.5965C103.44 37.3932 102.955 36.9237 102.549 36.1882Z"
        fill="#FF2E63" />
    <path d="M108.731 44.1738H107.461V50.9487H108.731V44.1738Z" fill="#03007F" />
    <path d="M111.483 48.1961V46.9258H104.709V48.1961H111.483Z" fill="#03007F" />
    <path d="M110.94 45.615L110.042 44.7168L105.251 49.5073L106.15 50.4055L110.94 45.615Z" fill="#03007F" />
    <path d="M110.042 50.4051L110.94 49.5068L106.15 44.7163L105.252 45.6145L110.042 50.4051Z" fill="#03007F" />
    <path d="M10.4959 67.8857H9.22559V74.6606H10.4959V67.8857Z" fill="#03007F" />
    <path d="M13.249 71.908V70.6377H6.4742V71.908H13.249Z" fill="#03007F" />
    <path d="M12.7058 69.3269L11.8076 68.4287L7.01709 73.2192L7.91532 74.1175L12.7058 69.3269Z" fill="#03007F" />
    <path d="M11.8069 74.117L12.7051 73.2188L7.91456 68.4282L7.01633 69.3264L11.8069 74.117Z" fill="#03007F" />
</svg>