<svg width="285" height="46" viewBox="0 0 285 46" fill="none" xmlns="http://www.w3.org/2000/svg">
    <g clip-path="url(#clip0_1988_5183)">
        <path d="M285 0H197.25V46H285V0Z" fill="#00C0CC" />
        <path d="M216.886 41.382H201.941V4.62744H207.558V36.2607H216.882V41.3853L216.886 41.382Z" fill="white" />
        <path
            d="M225.761 33.2824L224.469 41.3824H218.906L225.029 4.62451H232.334L238.85 41.3824H233.062L231.77 33.2824H225.757H225.761ZM228.683 13.498L226.549 28.1577H230.931L228.683 13.498Z"
            fill="white" />
        <path
            d="M241.659 4.62744H249.467C255.647 4.62744 258.791 7.82335 258.791 14.1625C258.791 18.02 257.667 20.4457 254.859 22.3744C258.117 23.974 259.466 26.6729 259.466 31.5211C259.466 35.214 258.566 37.857 256.714 39.5685C255.198 40.9476 253.624 41.3853 249.973 41.3853H241.659V4.62744ZM248.457 19.8368C250.198 19.8368 250.983 19.6163 251.772 18.8988C252.782 17.9607 253.288 16.473 253.288 14.3797C253.288 11.2398 252.054 9.75208 249.413 9.75208H247.279V19.8368H248.46H248.457ZM249.356 36.2607C252.503 36.2607 253.849 34.717 253.849 30.9155C253.849 28.5457 253.231 26.7289 252.05 25.7909C251.319 25.1853 250.42 24.9647 248.678 24.9647H247.272V36.2607H249.353H249.356Z"
            fill="white" />
        <path
            d="M274.468 13.6657C274.132 10.3579 273.287 9.20264 271.21 9.20264C269.3 9.20264 268.062 10.6344 268.062 12.8396C268.062 15.3739 269.072 16.8616 273.062 20.4986C278.904 25.7351 280.31 28.0489 280.31 32.512C280.31 38.1337 276.713 41.9352 271.435 41.9352C266.156 41.9352 262.278 38.0218 262.11 32.015L267.448 31.077C267.616 34.9345 268.908 36.8073 271.438 36.8073C273.518 36.8073 274.864 35.2636 274.864 32.7852C274.864 31.4061 274.357 30.0863 273.404 28.8191C272.505 27.6606 272.169 27.2755 269.022 24.4647C264.304 20.1661 262.617 17.2467 262.617 13.1687C262.617 7.71166 266.156 4.07471 271.438 4.07471C276.38 4.07471 279.246 7.05009 279.92 12.8923L274.471 13.6624L274.468 13.6657Z"
            fill="white" />
        <path d="M197.25 0H46.895V46H197.25V0Z" fill="#FF2E63" />
        <path
            d="M63.6887 16.9572C63.6887 14.8606 63.6351 13.2512 63.578 12.3921C63.3599 10.674 62.209 9.54511 60.6219 9.54511C59.1992 9.54511 58.2128 10.4042 57.8302 11.9083C57.6658 12.6061 57.5551 14.3274 57.5551 17.3357V28.7271C57.5551 32.1666 57.6658 33.6708 57.9376 34.4212C58.3772 35.7114 59.3603 36.4618 60.6219 36.4618C62.209 36.4618 63.3599 35.2802 63.5243 33.4535C63.6351 32.4859 63.6887 29.8528 63.6887 28.2433H69.2218V30.2839C69.2218 33.99 69.0037 35.3888 67.9635 37.2682C66.5945 39.9013 63.9102 41.4581 60.679 41.4581C58.1054 41.4581 55.7499 40.4378 54.2702 38.6111C52.4616 36.4618 52.0791 34.6878 52.0791 29.1024V16.9605C52.0791 11.3191 52.4616 9.54511 54.2702 7.39585C55.7499 5.56915 58.1054 4.54883 60.679 4.54883C63.8565 4.54883 66.5945 6.00032 67.9635 8.47213C68.95 10.2462 69.2218 11.5331 69.2218 15.0252V16.9605H63.6887V16.9572Z"
            fill="white" />
        <path
            d="M77.6 40.9183H72.124V5.08203H79.7911C86.1462 5.08203 88.9379 8.30427 88.9379 15.4498C88.9379 20.0709 87.9514 22.5427 85.2671 24.4747L89.4848 40.915H83.68L80.2306 25.9262H77.6V40.915V40.9183ZM79.3515 20.9332C81.2138 20.9332 81.9251 20.6633 82.5291 19.8043C83.076 18.9452 83.4585 17.3325 83.4585 15.5058C83.4585 13.5704 83.076 11.8524 82.3647 11.046C81.8177 10.2923 81.1064 10.0783 79.3515 10.0783H77.6V20.9299H79.3515V20.9332Z"
            fill="white" />
        <path
            d="M107.231 10.0783H97.8095V19.8569H104.601V24.8532H97.8095V35.922H107.231V40.9183H92.3335V5.08203H107.231V10.0783Z"
            fill="white" />
        <path
            d="M116.378 33.0191L115.12 40.9183H109.698L115.667 5.08203H122.787L129.142 40.9183H123.502L122.244 33.0191H116.382H116.378ZM119.227 13.7317L117.147 28.0228H121.418L119.227 13.7317Z"
            fill="white" />
        <path d="M139.437 40.9183H133.961V10.0783H128.156V5.08203H145.352V10.0783H139.437V40.9183Z" fill="white" />
        <path d="M153.127 40.9183H147.651V5.08203H153.127V40.9183Z" fill="white" />
        <path
            d="M162.659 40.9183L155.65 5.08203H161.237L165.454 28.0228L169.179 5.08203H174.601L168.357 40.9183H162.659Z"
            fill="white" />
        <path
            d="M192.069 10.0783H182.647V19.8569H189.439V24.8532H182.647V35.922H192.069V40.9183H177.171V5.08203H192.069V10.0783Z"
            fill="white" />
        <path
            d="M23.4475 0C10.499 0 0 10.2987 0 23C0 35.7013 10.499 46 23.4475 46C36.3959 46 46.8949 35.7013 46.8949 23C46.8949 10.2987 36.3959 0 23.4475 0Z"
            fill="#03007F" />
        <path
            d="M16.5655 13.873H15.7837C14.3006 13.873 13.4886 14.6926 13.4886 16.335V24.2507C13.4886 26.288 12.7873 27.0022 11.1398 27.0022C9.84462 27.0022 8.79103 26.446 7.95554 25.4388C7.87501 25.3335 6.17383 26.1267 6.17383 28.0851C6.17383 30.2014 8.19713 31.4982 11.9485 31.4982C16.5084 31.4982 18.9109 29.2469 18.9109 24.3264V16.3317C18.9109 14.6893 18.1022 13.8697 16.5621 13.8697L16.5655 13.873ZM23.6286 17.8687H23.0883C21.7663 17.8687 20.7664 18.4776 20.7664 20.3307V28.7993C20.7664 30.6787 21.7395 31.2613 23.142 31.2613H23.6822C25.0043 31.2613 25.9471 30.626 25.9471 28.7993V20.3307C25.9471 18.425 25.0311 17.8687 23.6252 17.8687H23.6286ZM23.3333 11.7271C21.6589 11.7271 20.6087 12.6519 20.6087 14.11C20.6087 15.5681 21.6891 16.5193 23.4138 16.5193C25.1385 16.5193 26.1384 15.5944 26.1384 14.11C26.1384 12.6256 25.058 11.7271 23.3333 11.7271ZM34.7383 17.7338C30.3125 17.7338 27.3698 20.4854 27.3698 24.5897C27.3698 28.694 30.2018 31.4982 34.6544 31.4982C39.107 31.4982 41.996 28.7993 41.996 24.616C41.996 20.4327 39.107 17.7338 34.7383 17.7338ZM34.6846 27.6078C32.9565 27.6078 31.7687 26.3637 31.7687 24.5897C31.7687 22.8156 32.9834 21.5978 34.6846 21.5978C36.3857 21.5978 37.597 22.842 37.597 24.616C37.597 26.39 36.3555 27.6078 34.6846 27.6078Z"
            fill="white" />
    </g>
    <defs>
        <clipPath id="clip0_1988_5183">
            <rect width="285" height="46" fill="white" />
        </clipPath>
    </defs>
</svg>